<svg xmlns="http://www.w3.org/2000/svg" width="352.974" height="50.924" viewBox="0 0 282.37899 40.738997" fill-rule="evenodd"><g><path d="M57.734 10.762h-3.449l.418-2.609h3.453l-.422 2.609zm-5.699 5.403l.301-1.922h4.859l-1.922 11.937h2.371l-.328 1.922h-6.813l.301-1.922h2.07l1.621-10.019h-2.461" fill="#211f1f"/><path d="M66.703 16.043c1.024-.781 2.613-2.101 5.281-2.101 2.191 0 3.781 1.351 3.781 3.449 0 .691-.18 1.863-.422 3.301l-.961 5.492h2.25l-.328 1.918h-6.902l.332-1.918h2.25l.93-5.371c.211-1.262.328-2.039.328-3.121 0-.57-.207-1.77-1.949-1.77-1.649 0-3.477 1.2-4.738 2.192l-1.41 8.07h2.34l-.328 1.918h-6.961l.328-1.918h2.223l1.738-10.019h-2.578l.328-1.922h4.769l-.301 1.8" fill="#211f1f"/><path d="M85.754 14.243h2.461l-.363 1.922h-2.457l-1.41 7.5c-.121.566-.242 1.226-.242 1.589 0 .598.27.868.992.868h1.77l-.359 1.98h-2.941c-1.262 0-1.98-.602-1.98-1.77 0-.539.152-1.5.27-2.191l1.5-7.98h-2.43l.363-1.918h2.43l.898-4.801h2.398l-.898 4.801" fill="#211f1f"/><path d="M102.223 19.852c-.028-2.219-1.77-3.93-4.289-3.93-3.481 0-4.891 2.34-5.039 3.93h9.332-.004zm-9.629 1.98c-.18 2.461 1.441 4.59 4.621 4.59 2.371 0 3.75-.961 4.68-2.191l1.679 1.113c-1.109 1.321-2.91 3.059-6.48 3.059-4.41 0-7.02-2.641-7.02-6.449 0-4.829 3.301-8.012 7.891-8.012 4.019 0 6.777 2.461 6.777 6.273v1.617h-12.148" fill="#211f1f"/><path d="M112.605 16.731l.059.062c1.109-1.832 3.301-2.851 5.039-2.851l-.359 2.219c-1.621.062-4.379.722-5.039 4.738l-.871 5.281h2.609l-.328 1.922h-7.231l.332-1.922h2.219l1.649-10.019h-2.461l.332-1.918h4.468l-.418 2.488" fill="#211f1f"/><path d="M118.426 28.102l.328-1.922h2.101l3.086-17.816h-2.457l.329-1.922h4.863l-1.621 9.57.058.059c.75-.809 2.34-2.129 5.008-2.129 2.192 0 3.781 1.351 3.781 3.449 0 .691-.179 1.863-.422 3.301l-.957 5.492h2.25l-.332 1.918h-6.898l.328-1.918h2.25l.934-5.371c.211-1.262.328-2.039.328-3.121 0-.57-.207-1.77-1.949-1.77-1.653 0-3.481 1.2-4.743 2.192l-1.41 8.07h2.34l-.328 1.918h-6.867" fill="#211f1f"/><path d="M136.781 34.34l.305-1.918h2.219l3.031-4.828-2.793-11.429h-2.188l.297-1.922h6.719l-.301 1.922h-2.129l2.102 8.726 5.488-8.726h-2.218l.3-1.922h6.539l-.297 1.922h-1.921l-10.231 16.257h2.25l-.301 1.918h-6.871" fill="#211f1f"/><path d="M163.664 26.422c3.059 0 4.891-2.578 4.891-5.789 0-2.429-1.051-4.711-4.172-4.711-3.063 0-4.891 2.582-4.891 5.789 0 2.43 1.051 4.711 4.172 4.711zm-3.359-10.531l.058.063c1.289-1.289 2.758-2.012 4.891-2.012 3.512 0 5.816 2.582 5.816 6.66 0 3.93-2.367 7.801-7.015 7.801-2.434 0-4.082-1.02-5.219-2.641l-1.145 6.66h2.43l-.328 1.918h-6.988l.328-1.918h2.16l2.762-16.257h-2.461l.332-1.922h4.644l-.265 1.648" fill="#211f1f"/><path d="M.75.75h39.402v39.239h-39.402v-39.239z" stroke="#211f1f" stroke-width="1.5" fill="none"/><path d="M7.695 20.368c0-7.043 5.711-12.758 12.754-12.758 7.047 0 12.758 5.715 12.758 12.758 0 7.047-5.711 12.757-12.758 12.757-7.043 0-12.754-5.71-12.754-12.757z" stroke="#211f1f" stroke-width="1.5" fill="none"/><path d="M184.246 21.829c0 3.148 1.832 4.859 4.949 4.859 3.602 0 6.184-3.027 6.184-6.539 0-3.027-2.25-4.977-5.223-4.977-3.777 0-5.91 3.086-5.91 6.657zm15.813-7.707l-.18 1.347h-2.191l-1.77 9.903c-.84 4.617-2.16 7.828-7.473 7.828-2.425 0-5.007-1.02-5.636-3.571h1.621c.508 1.743 2.367 2.219 3.988 2.219 3.809 0 5.25-2.398 5.852-5.789l-.063-.059c-1.41 1.262-3.359 2.04-5.16 2.04-4.02 0-6.27-2.579-6.27-6.508 0-4.172 3.153-7.711 7.411-7.711 2.371 0 4.378.988 5.847 2.82l.422-2.519h3.602" fill="#211f1f"/><path d="M206.117 15.227l.059.063c.242-.418 1.469-1.469 2.762-1.469 1.679 0 2.609 1.226 2.519 2.816h-1.352c0-.808-.328-1.469-1.347-1.469-1.922 0-2.91 2.161-3.301 4.5l-1.141 6.719h2.551l-.211 1.352h-6.148l.211-1.352h2.129l1.828-10.918h-2.52l.211-1.351h3.903l-.153 1.109" fill="#211f1f"/><path d="M224.117 25.969c-1.711 1.141-3.48 2.071-5.609 2.071-1.922 0-3.813-1.02-3.813-3.18 0-.813.539-3.84.723-4.86l.75-4.531h-2.523l.21-1.347h4.051l-.929 5.367c-.18 1.078-.809 4.32-.809 5.34 0 1.261 1.109 1.859 2.461 1.859 2.098 0 4.105-1.109 5.695-2.43l1.621-8.789h-2.578l.207-1.347h4.082l-2.16 12.269h2.16l-.179 1.348h-3.629l.269-1.77" fill="#211f1f"/><path d="M245.836 20.059c0-2.762-1.981-4.891-4.801-4.891-3.961 0-6.359 2.821-6.359 6.633 0 2.758 1.98 4.887 4.801 4.887 3.961 0 6.359-2.816 6.359-6.629zm-14.43 11.789l2.852-16.379h-2.524l.211-1.351h3.993l-.274 1.89.063.059c1.289-1.406 3.359-2.25 5.308-2.25 3.903 0 6.274 2.941 6.274 6.871 0 3.512-2.914 7.348-7.711 7.348-3.993 0-5.371-3.239-5.524-3.239l-1.226 7.051h2.398l-.211 1.352h-5.847l.207-1.352h2.011" fill="#211f1f"/><path d="M264.164 20.059c0-2.762-1.976-4.891-4.797-4.891-3.961 0-6.359 2.821-6.359 6.633 0 2.758 1.976 4.887 4.801 4.887 3.957 0 6.355-2.816 6.355-6.629zm-14.43 11.789l2.852-16.379h-2.52l.211-1.351h3.989l-.27 1.89.063.059c1.289-1.406 3.355-2.25 5.308-2.25 3.899 0 6.27 2.941 6.27 6.871 0 3.512-2.91 7.348-7.711 7.348-3.988 0-5.367-3.239-5.52-3.239l-1.23 7.051h2.398l-.207 1.352h-5.847l.207-1.352h2.007" fill="#211f1f"/><path d="M280.906 20.211c.18-2.972-2.07-5.043-4.98-5.043-3.117 0-6.059 1.711-6.656 5.043h11.636zm-11.761 1.348c.125 3.481 2.46 5.129 5.761 5.129 2.102 0 4.078-1.02 5.34-2.668l1.141.66c-1.41 2.156-4.02 3.36-6.602 3.36-4.051 0-7.105-2.493-7.105-6.661 0-4.468 3.656-7.558 7.976-7.558 3.93 0 6.723 2.398 6.723 6.386v1.352h-13.234" fill="#211f1f"/></g></svg>